<?xml version="1.0" encoding="utf-8"?>
<!-- Generator: Adobe Illustrator 22.0.1, SVG Export Plug-In . SVG Version: 6.00 Build 0)  -->
<svg version="1.1" id="Layer_1" xmlns="http://www.w3.org/2000/svg" xmlns:xlink="http://www.w3.org/1999/xlink" x="0px" y="0px"
	 viewBox="0 0 100 100" style="enable-background:new 0 0 100 100;" xml:space="preserve">
<style type="text/css">
	.st0{fill:#FF0000;}
</style>
<g>
	<polygon class="st0" points="26.1,62.7 2.3,39.4 35.3,34.6 50,4.7 64.7,34.6 97.7,39.4 73.9,62.7 79.5,95.5 50,80 20.5,95.5 	"/>
	<path d="M50,5.8l14.2,28.7l0.2,0.5l0.5,0.1l31.7,4.6L73.7,62.1l-0.4,0.4l0.1,0.5l5.4,31.6L50.5,79.7L50,79.4l-0.5,0.2L21.2,94.6
		L26.6,63l0.1-0.5l-0.4-0.4L3.3,39.7l31.7-4.6l0.5-0.1l0.2-0.5L50,5.8 M50,3.6L34.9,34.1L1.2,39l24.4,23.8l-5.8,33.6L50,80.6
		l30.2,15.9l-5.8-33.6L98.8,39l-33.7-4.9L50,3.6L50,3.6z"/>
</g>
</svg>
